<?xml version="1.0" encoding="UTF-8" standalone="no"?>
<!DOCTYPE svg PUBLIC "-//W3C//DTD SVG 1.1//EN" "http://www.w3.org/Graphics/SVG/1.1/DTD/svg11.dtd">
<svg version="1.1" xmlns="http://www.w3.org/2000/svg" xmlns:xlink="http://www.w3.org/1999/xlink" preserveAspectRatio="xMidYMid meet" viewBox="84.83184499444351 1.903586424998494 472.336310011113 638.1928271500032" width="468.34" height="634.19"><defs><path d="M323.76 3.03L325.92 3.17L328.06 3.37L330.21 3.62L332.35 3.92L334.48 4.27L336.61 4.68L338.73 5.14L340.83 5.65L342.93 6.21L345.02 6.83L347.09 7.5L349.15 8.22L351.2 8.99L353.23 9.82L355.25 10.7L357.25 11.63L359.23 12.62L361.19 13.66L508.94 94.2L509.39 94.46L509.84 94.72L510.28 94.99L510.71 95.26L511.13 95.55L511.55 95.84L511.97 96.15L512.37 96.46L512.77 96.77L513.16 97.1L513.55 97.43L513.93 97.77L514.3 98.12L514.66 98.48L515.02 98.84L515.37 99.21L515.71 99.58L516.04 99.97L516.37 100.36L516.68 100.75L516.99 101.15L517.29 101.56L517.59 101.98L517.87 102.4L518.15 102.82L518.41 103.25L518.67 103.69L518.92 104.13L519.17 104.58L519.4 105.04L519.62 105.49L519.84 105.96L520.04 106.43L520.24 106.9L520.42 107.38L520.6 107.86L520.77 108.34L520.93 108.83L521.07 109.33L521.21 109.83L552.68 228.1L552.82 228.65L552.96 229.2L553.09 229.75L553.21 230.31L553.32 230.86L553.43 231.42L553.53 231.97L553.62 232.53L553.7 233.09L553.78 233.65L553.85 234.21L553.92 234.77L553.97 235.33L554.02 235.89L554.06 236.45L554.1 237.02L554.13 237.58L554.15 238.14L554.16 238.71L554.17 239.27L554.17 239.83L554.16 240.4L554.14 240.96L554.12 241.52L554.09 242.09L554.06 242.65L554.01 243.21L553.96 243.77L553.9 244.33L553.84 244.89L553.77 245.45L553.69 246.01L553.6 246.57L553.51 247.13L553.4 247.69L553.3 248.24L553.18 248.8L553.06 249.35L552.93 249.9L552.79 250.45L528.26 346.55L528.09 347.21L527.93 347.87L527.78 348.53L527.64 349.2L527.5 349.87L527.37 350.53L527.24 351.2L527.12 351.87L527.01 352.54L526.91 353.21L526.81 353.89L526.72 354.56L526.63 355.23L526.55 355.91L526.48 356.58L526.42 357.26L526.36 357.93L526.31 358.61L526.27 359.29L526.23 359.96L526.2 360.64L526.17 361.32L526.16 362L526.15 362.68L526.14 363.36L526.15 364.04L526.16 364.71L526.17 365.39L526.2 366.07L526.23 366.75L526.26 367.43L526.31 368.11L526.36 368.79L526.42 369.46L526.48 370.14L526.55 370.82L526.63 371.49L526.72 372.17L526.81 372.84L526.91 373.52L532.87 413.07L532.97 413.77L533.05 414.46L533.11 415.16L533.16 415.86L533.19 416.56L533.2 417.26L533.2 417.96L533.18 418.65L533.14 419.35L533.09 420.04L533.02 420.73L532.94 421.41L532.84 422.09L532.72 422.77L532.59 423.45L532.44 424.12L532.28 424.79L532.1 425.46L531.91 426.12L531.7 426.77L531.47 427.43L531.23 428.07L530.98 428.71L530.71 429.34L530.42 429.97L530.12 430.59L529.81 431.21L529.48 431.81L529.13 432.41L528.78 433.01L528.4 433.59L528.02 434.17L527.62 434.74L527.2 435.29L526.77 435.85L526.33 436.39L525.87 436.92L525.41 437.44L524.92 437.95L524.42 438.46L449.2 512.65L448.86 512.99L448.53 513.33L448.21 513.68L447.9 514.04L447.59 514.4L447.29 514.77L447 515.15L446.72 515.53L446.45 515.91L446.19 516.3L445.93 516.69L445.68 517.09L445.44 517.5L445.21 517.91L444.99 518.32L444.77 518.74L444.57 519.16L444.37 519.58L444.18 520.01L444 520.45L443.83 520.88L443.67 521.32L443.52 521.77L443.37 522.21L443.24 522.66L443.12 523.12L443 523.57L442.89 524.03L442.79 524.49L442.71 524.95L442.63 525.41L442.56 525.88L442.5 526.35L442.45 526.82L442.41 527.29L442.38 527.77L442.35 528.24L442.34 528.72L442.34 529.19L442.35 529.67L444.64 612.71L418.97 629.4L401.01 612.71L401.01 556.93L401 556.75L400.99 556.56L400.97 556.38L400.95 556.2L400.91 556.02L400.87 555.84L400.83 555.67L400.78 555.5L400.72 555.33L400.65 555.17L400.58 555.01L400.5 554.85L400.42 554.69L400.33 554.54L400.23 554.4L400.13 554.25L400.03 554.12L399.91 553.98L399.8 553.85L399.68 553.73L399.55 553.6L399.42 553.49L399.29 553.38L399.15 553.27L399.01 553.17L398.86 553.08L398.71 552.99L398.55 552.9L398.4 552.82L398.24 552.75L398.07 552.69L397.9 552.63L397.73 552.57L397.56 552.53L397.38 552.49L397.31 552.47L397.41 552.45L397.51 552.43L397.62 552.42L397.73 552.41L397.84 552.4L397.95 552.4L396.47 552.4L396.66 552.4L396.84 552.41L397.02 552.43L397.21 552.46L397.31 552.47L397.3 552.48L397.2 552.5L397.09 552.53L396.99 552.57L396.89 552.61L396.8 552.65L396.7 552.7L396.61 552.75L396.52 552.8L396.43 552.86L396.35 552.92L396.26 552.98L396.18 553.05L396.1 553.12L396.03 553.19L395.96 553.27L395.89 553.35L395.82 553.43L395.76 553.51L395.7 553.6L395.64 553.68L395.59 553.77L395.54 553.87L395.49 553.96L395.45 554.06L395.41 554.16L395.37 554.26L395.34 554.36L395.31 554.46L395.29 554.57L395.27 554.68L395.25 554.79L395.24 554.9L395.23 555.01L395.23 555.12L395.23 614.64L371.49 629.4L350.31 614.64L350.31 556.93L350.31 556.75L350.3 556.56L350.28 556.38L350.26 556.2L350.22 556.02L350.18 555.84L350.14 555.67L350.08 555.5L350.02 555.33L349.96 555.17L349.89 555.01L349.81 554.85L349.72 554.69L349.64 554.54L349.54 554.4L349.44 554.25L349.33 554.12L349.22 553.98L349.11 553.85L348.99 553.73L348.86 553.6L348.73 553.49L348.6 553.38L348.46 553.27L348.31 553.17L348.17 553.08L348.02 552.99L347.86 552.9L347.7 552.82L347.54 552.75L347.38 552.69L347.21 552.63L347.04 552.57L346.87 552.53L346.79 552.51L346.88 552.49L347.06 552.46L347.24 552.43L347.42 552.41L347.61 552.4L347.79 552.4L345.78 552.4L345.96 552.4L346.15 552.41L346.33 552.43L346.51 552.46L346.69 552.49L346.79 552.51L346.7 552.53L346.53 552.57L346.36 552.63L346.19 552.69L346.03 552.75L345.87 552.82L345.71 552.9L345.55 552.99L345.4 553.08L345.26 553.17L345.11 553.27L344.98 553.38L344.84 553.49L344.71 553.6L344.59 553.73L344.46 553.85L344.35 553.98L344.24 554.12L344.13 554.25L344.03 554.4L343.94 554.54L343.85 554.69L343.76 554.85L343.69 555.01L343.61 555.17L343.55 555.33L343.49 555.5L343.43 555.67L343.39 555.84L343.35 556.02L343.32 556.2L343.29 556.38L343.27 556.56L343.26 556.75L343.26 556.93L343.26 614.64L319.51 637.1L297.06 614.64L297.06 556.03L297.05 555.88L297.04 555.73L297.03 555.58L297.01 555.44L296.98 555.29L296.95 555.15L296.91 555.02L296.87 554.88L296.82 554.74L296.77 554.61L296.71 554.48L296.65 554.36L296.58 554.23L296.51 554.11L296.44 554L296.36 553.88L296.27 553.77L296.18 553.66L296.09 553.56L295.99 553.46L295.89 553.36L295.79 553.27L295.68 553.18L295.57 553.1L295.46 553.02L295.34 552.94L295.22 552.87L295.09 552.8L294.97 552.74L294.84 552.68L294.71 552.63L294.57 552.58L294.44 552.54L294.3 552.5L294.25 552.49L294.26 552.49L294.44 552.46L294.62 552.43L294.8 552.41L294.99 552.4L295.18 552.4L293.43 552.4L293.58 552.4L293.72 552.41L293.87 552.42L294.02 552.44L294.16 552.47L294.25 552.49L294.09 552.53L293.91 552.57L293.74 552.63L293.58 552.69L293.41 552.75L293.25 552.82L293.09 552.9L292.94 552.99L292.79 553.08L292.64 553.17L292.5 553.27L292.36 553.38L292.22 553.49L292.09 553.6L291.97 553.73L291.85 553.85L291.73 553.98L291.62 554.12L291.52 554.25L291.41 554.4L291.32 554.54L291.23 554.69L291.15 554.85L291.07 555.01L291 555.17L290.93 555.33L290.87 555.5L290.82 555.67L290.77 555.84L290.73 556.02L290.7 556.2L290.67 556.38L290.65 556.56L290.64 556.75L290.64 556.93L290.64 614.64L266.26 629.4L246.36 612.71L246.36 556.93L246.36 556.75L246.35 556.56L246.33 556.38L246.31 556.2L246.27 556.02L246.23 555.84L246.19 555.67L246.13 555.5L246.07 555.33L246.01 555.17L245.94 555.01L245.86 554.85L245.77 554.69L245.68 554.54L245.59 554.4L245.49 554.25L245.38 554.12L245.27 553.98L245.16 553.85L245.04 553.73L244.91 553.6L244.78 553.49L244.65 553.38L244.51 553.27L244.36 553.17L244.22 553.08L244.07 552.99L243.91 552.9L243.75 552.82L243.59 552.75L243.43 552.69L243.26 552.63L243.09 552.57L242.92 552.53L242.74 552.49L242.56 552.46L242.41 552.43L242.49 552.42L242.64 552.41L242.79 552.4L242.94 552.4L241.83 552.4L242.01 552.4L242.2 552.41L242.38 552.43L242.41 552.43L242.35 552.44L242.2 552.47L242.06 552.5L241.93 552.54L241.79 552.58L241.65 552.63L241.52 552.68L241.39 552.74L241.27 552.8L241.14 552.87L241.02 552.94L240.91 553.02L240.79 553.1L240.68 553.18L240.57 553.27L240.47 553.36L240.37 553.46L240.27 553.56L240.18 553.66L240.09 553.77L240.01 553.88L239.93 554L239.85 554.11L239.78 554.23L239.71 554.36L239.65 554.48L239.59 554.61L239.54 554.74L239.49 554.88L239.45 555.02L239.41 555.15L239.38 555.29L239.35 555.44L239.33 555.58L239.32 555.73L239.31 555.88L239.31 556.03L239.31 612.71L219.41 629.4L196.96 612.71L196.96 532.62L196.95 532L196.93 531.38L196.9 530.77L196.86 530.15L196.8 529.54L196.73 528.93L196.65 528.32L196.56 527.71L196.46 527.11L196.34 526.51L196.21 525.91L196.07 525.31L195.92 524.72L195.76 524.14L195.58 523.55L195.4 522.97L195.2 522.39L194.99 521.82L194.77 521.25L194.54 520.69L194.3 520.13L194.04 519.58L193.78 519.03L193.5 518.49L193.22 517.95L192.92 517.42L192.61 516.89L192.29 516.37L191.97 515.85L191.63 515.35L191.28 514.84L190.92 514.35L190.55 513.86L190.17 513.38L189.77 512.9L189.37 512.43L188.96 511.97L188.54 511.52L188.11 511.08L187.67 510.64L112.2 437.22L111.76 436.78L111.33 436.33L110.91 435.87L110.51 435.4L110.11 434.92L109.73 434.44L109.37 433.94L109.01 433.44L108.67 432.93L108.34 432.41L108.03 431.89L107.73 431.36L107.44 430.82L107.16 430.28L106.9 429.73L106.65 429.17L106.42 428.61L106.2 428.04L105.99 427.47L105.8 426.89L105.62 426.31L105.45 425.73L105.3 425.14L105.17 424.55L105.04 423.95L104.94 423.35L104.84 422.75L104.76 422.14L104.7 421.54L104.65 420.93L104.62 420.31L104.6 419.7L104.59 419.09L104.6 418.47L104.63 417.86L104.67 417.24L104.73 416.62L104.8 416L104.88 415.39L104.99 414.77L111.66 377.57L111.81 376.69L111.95 375.82L112.08 374.94L112.2 374.07L112.32 373.19L112.42 372.31L112.51 371.43L112.6 370.55L112.67 369.67L112.74 368.79L112.79 367.91L112.84 367.03L112.87 366.15L112.9 365.27L112.92 364.38L112.92 363.5L112.92 362.62L112.91 361.74L112.89 360.86L112.85 359.98L112.81 359.1L112.76 358.22L112.7 357.34L112.63 356.46L112.55 355.58L112.46 354.7L112.36 353.83L112.26 352.95L112.14 352.08L112.01 351.2L111.87 350.33L111.73 349.46L111.57 348.59L111.4 347.72L111.23 346.86L111.04 345.99L110.85 345.13L110.65 344.27L110.43 343.41L110.21 342.55L89.01 262.83L88.71 261.66L88.42 260.5L88.15 259.34L87.89 258.17L87.65 257L87.43 255.82L87.21 254.65L87.02 253.47L86.84 252.29L86.67 251.11L86.52 249.93L86.38 248.74L86.26 247.56L86.16 246.37L86.07 245.18L85.99 244L85.93 242.81L85.88 241.62L85.85 240.43L85.83 239.24L85.83 238.05L85.85 236.86L85.87 235.67L85.92 234.48L85.98 233.29L86.05 232.1L86.14 230.91L86.24 229.73L86.36 228.54L86.49 227.36L86.64 226.17L86.81 224.99L86.98 223.81L87.18 222.63L87.39 221.46L87.61 220.28L87.85 219.11L88.1 217.94L88.37 216.77L88.65 215.61L114.92 110.53L115.08 109.94L115.24 109.36L115.42 108.77L115.61 108.2L115.81 107.62L116.03 107.06L116.25 106.5L116.49 105.94L116.74 105.39L117 104.85L117.27 104.31L117.55 103.78L117.84 103.25L118.14 102.74L118.46 102.22L118.78 101.72L119.11 101.22L119.46 100.73L119.81 100.25L120.18 99.77L120.55 99.3L120.93 98.84L121.33 98.39L121.73 97.95L122.14 97.51L122.56 97.08L122.99 96.66L123.43 96.25L123.88 95.85L124.34 95.46L124.8 95.08L125.27 94.71L125.76 94.34L126.25 93.99L126.74 93.64L127.25 93.31L127.76 92.98L128.29 92.67L128.82 92.37L129.35 92.07L277.61 13.22L279.58 12.21L281.57 11.24L283.58 10.33L285.6 9.47L287.64 8.67L289.7 7.91L291.77 7.21L293.85 6.56L295.94 5.97L298.05 5.43L300.16 4.94L302.28 4.5L304.41 4.12L306.55 3.79L308.69 3.51L310.84 3.28L312.99 3.11L315.14 2.99L317.3 2.92L319.45 2.9L321.61 2.94L323.76 3.03ZM315.58 383.67L315.09 383.74L314.6 383.85L314.11 383.98L313.63 384.14L313.16 384.33L312.7 384.54L312.25 384.78L311.82 385.04L311.39 385.34L310.99 385.65L310.6 386L310.22 386.37L309.87 386.77L309.53 387.2L309.22 387.65L308.93 388.13L308.67 388.64L308.43 389.17L279.69 458.65L279.48 459.21L279.3 459.76L279.15 460.31L279.03 460.87L278.94 461.42L278.87 461.98L278.84 462.53L278.83 463.08L278.86 463.62L278.9 464.16L278.98 464.7L279.08 465.22L279.2 465.74L279.35 466.26L279.52 466.76L279.72 467.25L279.94 467.74L280.18 468.21L280.44 468.67L280.73 469.12L281.03 469.55L281.36 469.97L281.7 470.37L282.06 470.76L282.44 471.13L282.84 471.48L283.26 471.82L283.69 472.13L284.14 472.42L284.61 472.7L285.09 472.95L285.58 473.17L286.09 473.38L286.61 473.56L287.15 473.71L287.7 473.84L288.26 473.94L288.83 474.01L289.41 474.06L290 474.07L340.36 474.07L341.2 474.05L342.02 473.99L342.82 473.88L343.61 473.74L344.38 473.55L345.13 473.33L345.87 473.07L346.58 472.78L347.28 472.45L347.95 472.09L348.6 471.7L349.22 471.28L349.83 470.83L350.41 470.35L350.96 469.85L351.49 469.32L351.99 468.77L352.46 468.19L352.91 467.59L353.32 466.97L353.71 466.34L354.07 465.68L354.39 465.01L354.68 464.32L354.94 463.62L355.16 462.91L355.35 462.18L355.51 461.44L355.63 460.7L355.71 459.94L355.75 459.18L355.76 458.42L355.73 457.65L355.65 456.87L355.54 456.1L355.38 455.32L355.18 454.54L354.94 453.77L354.65 453L354.32 452.23L324.97 388.83L324.71 388.3L324.42 387.81L324.11 387.34L323.78 386.9L323.43 386.49L323.06 386.11L322.67 385.75L322.27 385.42L321.84 385.12L321.41 384.84L320.96 384.6L320.5 384.38L320.04 384.18L319.56 384.02L319.07 383.88L318.58 383.77L318.09 383.68L317.59 383.63L317.09 383.6L316.59 383.59L316.08 383.62L315.58 383.67ZM425.49 320.66L424.68 320.74L372.16 327.27L370.87 327.46L369.6 327.71L368.37 328.02L367.16 328.38L365.98 328.79L364.83 329.26L363.71 329.77L362.63 330.33L361.57 330.94L360.56 331.6L359.58 332.3L358.63 333.04L357.72 333.81L356.85 334.63L356.02 335.48L355.23 336.37L354.48 337.29L353.77 338.24L353.11 339.23L352.49 340.24L351.92 341.27L351.39 342.33L350.9 343.42L350.47 344.52L350.09 345.65L349.75 346.79L349.47 347.95L349.24 349.12L349.06 350.31L348.93 351.51L348.86 352.71L348.85 353.93L348.89 355.15L348.99 356.38L349.15 357.61L349.37 358.84L349.65 360.07L349.99 361.3L350.39 362.52L350.86 363.74L362.79 392.74L362.92 393.04L363.06 393.34L363.22 393.63L363.38 393.92L363.56 394.19L363.75 394.46L363.94 394.71L364.14 394.96L364.36 395.2L364.58 395.43L364.8 395.65L365.04 395.86L365.28 396.06L365.53 396.25L365.79 396.43L366.05 396.6L366.32 396.76L366.6 396.91L366.88 397.05L367.16 397.18L367.45 397.3L367.75 397.4L368.05 397.5L368.35 397.58L368.65 397.66L368.96 397.72L369.27 397.77L369.58 397.81L369.9 397.83L370.22 397.85L370.53 397.85L370.85 397.84L371.17 397.81L371.49 397.78L371.81 397.73L372.13 397.67L372.45 397.59L372.77 397.5L373.09 397.4L373.4 397.29L446.48 368.9L446.84 368.75L447.2 368.59L447.54 368.41L447.88 368.23L448.21 368.03L448.53 367.83L448.84 367.61L449.15 367.38L449.44 367.14L449.72 366.9L449.99 366.64L450.26 366.37L450.51 366.1L450.75 365.82L450.98 365.53L451.21 365.23L451.42 364.92L451.62 364.61L451.8 364.29L451.98 363.97L452.15 363.63L452.3 363.3L452.44 362.96L452.57 362.61L452.69 362.26L452.79 361.9L452.89 361.54L452.96 361.17L453.03 360.81L453.08 360.44L453.13 360.06L453.15 359.69L453.17 359.31L453.17 358.93L453.15 358.55L453.12 358.16L453.08 357.78L453.02 357.4L452.95 357.01L452.86 356.63L448.01 336.82L447.81 336.04L447.57 335.28L447.31 334.52L447.03 333.78L446.71 333.06L446.38 332.35L446.01 331.66L445.63 330.99L445.22 330.33L444.79 329.69L444.34 329.07L443.87 328.47L443.38 327.88L442.86 327.31L442.33 326.77L441.78 326.24L441.21 325.74L440.63 325.25L440.03 324.79L439.41 324.34L438.78 323.92L438.13 323.53L437.47 323.15L436.79 322.8L436.1 322.47L435.4 322.17L434.69 321.89L433.97 321.64L433.24 321.42L432.49 321.21L431.74 321.04L430.98 320.89L430.22 320.77L429.44 320.68L428.66 320.62L427.88 320.58L427.08 320.58L426.29 320.6L425.49 320.66ZM204.74 320.04L203.96 320.1L203.18 320.2L202.42 320.32L201.66 320.46L200.91 320.64L200.16 320.84L199.43 321.06L198.71 321.32L198 321.59L197.3 321.9L196.61 322.22L195.93 322.57L195.27 322.95L194.63 323.35L193.99 323.77L193.37 324.21L192.77 324.67L192.19 325.16L191.62 325.66L191.07 326.19L190.54 326.74L190.03 327.3L189.53 327.89L189.06 328.49L188.61 329.11L188.18 329.75L187.77 330.41L187.39 331.09L187.02 331.78L186.69 332.48L186.38 333.21L186.09 333.94L185.83 334.7L185.59 335.46L185.39 336.24L180.54 356.05L180.45 356.44L180.38 356.82L180.32 357.2L180.28 357.59L180.25 357.97L180.24 358.35L180.24 358.73L180.25 359.11L180.28 359.48L180.32 359.86L180.37 360.23L180.44 360.6L180.52 360.96L180.61 361.32L180.71 361.68L180.83 362.03L180.96 362.38L181.1 362.72L181.26 363.06L181.42 363.39L181.6 363.71L181.79 364.03L181.98 364.35L182.19 364.65L182.42 364.95L182.65 365.24L182.89 365.52L183.14 365.8L183.41 366.06L183.68 366.32L183.96 366.57L184.25 366.8L184.56 367.03L184.87 367.25L185.19 367.46L185.52 367.65L185.86 367.84L186.2 368.01L186.56 368.17L186.92 368.32L260 396.71L260.32 396.82L260.63 396.93L260.95 397.01L261.27 397.09L261.59 397.15L261.91 397.2L262.23 397.24L262.55 397.26L262.87 397.27L263.19 397.27L263.5 397.25L263.82 397.23L264.13 397.19L264.44 397.14L264.75 397.08L265.05 397.01L265.36 396.92L265.65 396.83L265.95 396.72L266.24 396.6L266.52 396.47L266.8 396.33L267.08 396.18L267.35 396.02L267.61 395.85L267.87 395.67L268.12 395.48L268.36 395.28L268.6 395.07L268.83 394.85L269.05 394.62L269.26 394.38L269.46 394.13L269.66 393.88L269.84 393.61L270.02 393.34L270.18 393.06L270.34 392.76L270.48 392.47L270.62 392.16L282.54 363.16L283.01 361.94L283.41 360.72L283.75 359.49L284.03 358.26L284.25 357.03L284.41 355.8L284.51 354.57L284.55 353.35L284.54 352.14L284.47 350.93L284.34 349.73L284.16 348.54L283.93 347.37L283.65 346.21L283.31 345.07L282.93 343.94L282.5 342.84L282.01 341.76L281.49 340.69L280.91 339.66L280.29 338.65L279.63 337.67L278.92 336.71L278.17 335.79L277.38 334.91L276.55 334.05L275.68 333.24L274.77 332.46L273.83 331.72L272.84 331.02L271.83 330.37L270.77 329.76L269.69 329.19L268.57 328.68L267.42 328.21L266.24 327.8L265.04 327.44L263.8 327.13L262.53 326.88L261.24 326.69L208.72 320.16L207.91 320.08L207.11 320.02L206.32 320L205.53 320.01L204.74 320.04Z" id="a2NWtsv0PE"></path></defs><g><g><use xlink:href="#a2NWtsv0PE" opacity="1" fill="#000000" fill-opacity="1"></use><g><use xlink:href="#a2NWtsv0PE" opacity="1" fill-opacity="0" stroke="#000000" stroke-width="1" stroke-opacity="0"></use></g></g></g></svg>